<!-- apple-icon.svg -->
<svg xmlns="http://www.w3.org/2000/svg" width="24" height="24" viewBox="0 0 24 24" fill="currentColor">
  <path d="M16.365 1.43c0 1.14-.453 2.205-1.256 3.015-.755.76-1.925 1.343-2.979 1.26a3.406 3.406 0 01-.026-.426c0-1.084.484-2.238 1.305-3.036C14.22 1.447 15.357 1 16.365 1v.43zM20.35 17.75c-.662 1.52-.965 2.165-1.805 3.49-1.177 1.798-2.843 4.014-4.957 4.02-1.865.005-2.345-1.206-4.527-1.192-2.182.012-2.719 1.21-4.592 1.18-2.097-.032-3.717-2.064-4.88-3.854C-1.708 18.48-.306 13.956 1.593 11.424 2.783 9.886 4.44 9 6.13 9c2.048 0 3.088 1.257 4.633 1.284 1.506.026 2.388-1.285 4.525-1.285 1.617 0 3.31.877 4.501 2.386-3.972 2.077-3.329 7.135-.44 6.365z"/>
</svg>