<svg xmlns="http://www.w3.org/2000/svg" viewBox="0 0 533.5 544.3" width="20" height="20">
  <path fill="#4285F4" d="M533.5 278.4c0-17.4-1.6-34.1-4.7-50.4H272v95.3h147.6c-6.4 34.3-25.6 63.3-54.6 82.7v68h88.4c51.7-47.6 80.1-117.9 80.1-195.6z"/>
  <path fill="#34A853" d="M272 544.3c73.8 0 135.6-24.4 180.8-66.2l-88.4-68c-24.6 16.6-56.2 26.3-92.4 26.3-71.1 0-131.3-48-152.8-112.6H28.1v70.7c45.1 88.8 137.9 149.8 243.9 149.8z"/>
  <path fill="#FBBC05" d="M119.2 323.8c-10.7-31.4-10.7-65.6 0-97l-70.8-70.7C11 217.7 0 259.6 0 302.3s11 84.6 48.4 146.2l70.8-70.7z"/>
  <path fill="#EA4335" d="M272 107.7c39.8 0 75.5 13.7 103.5 40.6l77.6-77.6C407.6 25.1 347.3 0 272 0 166 0 73.2 60.9 28.1 149.8l91.1 70.7C140.7 155.7 200.9 107.7 272 107.7z"/>
</svg>